PathFileType	4	(X/Y/Z)	C:\Users\dbl\Desktop\LZH\BX\Trimmed_bx_y_10_1801.trc
DataRate	CameraRate	NumFrames	NumMarkers	Units	OrigDataRate	OrigDataStartFrame	OrigNumFrames
50.00	50.00	       5	43	mm	50.00	313	       357
Frame#	Time	Top.Head			R.Acromium			L.Acromium			Sternum			R.ASIS			L.ASIS			V.Sacral			R.Thigh.Upper			R.Thigh.Front			R.Thigh.Rear			R.Knee.Lat			R.Knee.Med			R.Shank.Upper			R.Shank.Front			R.Shank.Rear			R.Ankle.Lat			R.Midfoot.Lat			R.Toe.Lat			R.Toe.Tip			R.Toe.Med			R.Ankle.Med			R.Midfoot.Sup			R.Heel			L.Thigh.Upper			L.Thigh.Front			L.Thigh.Rear			L.Knee.Lat			L.Knee.Med			L.Shank.Upper			L.Shank.Front			L.Shank.Rear			L.Ankle.Lat			L.Midfoot.Lat			L.Toe.Lat			L.Toe.Tip			L.Toe.Med			L.Ankle.Med			L.Midfoot.Sup			L.Heel			origin1 front left			origin2 front right			origin 3 back right			origin 4 back leftt			
		X1	Y1	Z1	X2	Y2	Z2	X3	Y3	Z3	X4	Y4	Z4	X5	Y5	Z5	X6	Y6	Z6	X7	Y7	Z7	X8	Y8	Z8	X9	Y9	Z9	X10	Y10	Z10	X11	Y11	Z11	X12	Y12	Z12	X13	Y13	Z13	X14	Y14	Z14	X15	Y15	Z15	X16	Y16	Z16	X17	Y17	Z17	X18	Y18	Z18	X19	Y19	Z19	X20	Y20	Z20	X21	Y21	Z21	X22	Y22	Z22	X23	Y23	Z23	X24	Y24	Z24	X25	Y25	Z25	X26	Y26	Z26	X27	Y27	Z27	X28	Y28	Z28	X29	Y29	Z29	X30	Y30	Z30	X31	Y31	Z31	X32	Y32	Z32	X33	Y33	Z33	X34	Y34	Z34	X35	Y35	Z35	X36	Y36	Z36	X37	Y37	Z37	X38	Y38	Z38	X39	Y39	Z39	X40	Y40	Z40	X41	Y41	Z41	X42	Y42	Z42	X43	Y43	Z43	

313	6.240	-734.04944	241.67590	1832.68396	-700.72919	51.40758	1530.97607	-659.94342	433.51477	1538.27905	-584.14313	246.60706	1393.88306	-595.22821	128.11218	1062.63367	-583.67371	386.84412	1080.31555	-773.18787	246.39865	1066.35791	-619.32434	84.28554	898.32794	-566.32330	142.52184	853.47382	-663.64679	84.63893	753.63617	-673.02240	119.34376	607.54370	-652.32867	230.40482	571.44769	-704.96204	122.76460	542.20416	-620.02576	170.50464	555.12177	-741.33502	128.79935	473.35706	-688.75323	147.14131	213.70634	-618.69464	76.56877	164.78766	-573.30457	48.70945	157.83344	-492.46585	90.66821	160.14795	-531.59747	141.47214	165.95012	-631.40277	216.90407	222.07101	-590.61536	186.97209	171.25607	-712.65845	217.72639	169.97034	-603.11902	431.36346	889.70441	-557.05035	368.58295	845.99127	-647.00677	435.20834	757.01715	-671.97699	409.82425	631.24664	-636.70441	306.42908	585.45123	-676.91943	405.38242	566.73981	-623.64038	364.81339	547.63245	-727.88019	411.30695	513.95319	-682.62402	414.86133	214.56493	-585.74573	470.37839	163.50919	-546.76642	479.68509	158.81848	-488.09482	428.44565	169.14391	-525.95526	389.48608	178.10840	-644.44806	328.77054	207.83891	-594.29474	349.96756	170.14906	-732.72168	344.45386	164.03427	-443.79883	449.04315	147.28662	-450.20309	75.84824	143.87341	-806.18152	82.52855	142.67061	-799.29645	458.01212	144.69495	
314	6.260	-734.19189	241.65131	1832.81421	-701.38647	51.29162	1530.96326	-660.75183	433.42120	1538.12219	-584.81213	246.50998	1393.92322	-596.03009	128.24152	1062.62866	-584.64203	386.87518	1080.37366	-774.05139	246.39943	1066.30786	-620.10870	84.32628	898.47974	-567.05176	142.68045	853.46527	-664.19342	84.61131	753.63568	-673.50781	119.32375	607.50586	-652.81458	230.36737	570.82355	-705.45044	122.61955	542.07159	-620.45178	170.41646	554.95862	-741.61151	128.61575	473.28656	-688.83813	147.05121	213.67975	-618.68341	76.55742	164.80156	-573.33392	48.72205	157.86160	-492.47299	90.66016	160.16991	-531.64020	141.43599	166.02946	-631.56140	216.91661	222.02007	-590.59808	186.98206	171.26474	-712.62549	217.73376	169.96077	-604.03815	431.41345	889.64392	-557.75806	368.75027	846.14014	-647.88470	435.27670	757.05304	-672.62305	409.95374	631.26697	-637.15936	306.50238	585.40082	-677.45795	405.50531	566.69843	-624.17798	364.90204	547.58899	-728.27106	411.23972	513.77087	-682.68060	414.96371	214.62183	-585.78839	470.36926	163.53076	-546.77924	479.70135	158.82884	-488.17734	428.46832	169.15688	-526.00409	389.49835	178.09447	-644.44922	328.77112	207.89566	-594.22266	349.96686	170.25835	-732.75732	344.44962	164.04408	-443.77826	449.07693	147.27946	-450.24026	75.82448	143.86545	-806.18713	82.56187	142.65924	-799.38287	457.88904	144.84076	
315	6.280	-734.29498	241.56537	1832.91895	-702.03485	51.18794	1530.91138	-661.57404	433.30167	1538.02856	-585.48010	246.41740	1393.99609	-596.75604	128.38663	1062.58386	-585.51788	386.91949	1080.50574	-774.82642	246.36024	1066.20264	-620.83875	84.38013	898.54407	-567.76459	142.86342	853.41931	-664.62311	84.54530	753.61359	-673.84668	119.26383	607.48730	-653.22626	230.27425	570.30957	-705.78949	122.45193	541.90070	-620.82794	170.34676	554.78369	-741.83392	128.44054	473.21173	-688.92365	146.99330	213.65562	-618.66113	76.53867	164.84062	-573.35773	48.74148	157.89188	-492.47122	90.63530	160.19612	-531.66608	141.42766	166.10332	-631.65845	216.87035	222.10414	-590.60303	186.97797	171.26060	-712.62085	217.75018	169.91219	-604.81390	431.37949	889.58215	-558.36182	368.88141	846.39746	-648.61871	435.33142	757.06165	-673.11865	410.02264	631.25391	-637.45245	306.53238	585.39142	-677.85785	405.51358	566.62103	-624.57300	364.95105	547.58795	-728.60889	411.19550	513.63147	-682.73730	415.04309	214.67088	-585.83716	470.33063	163.53618	-546.78912	479.70389	158.84735	-488.25620	428.46436	169.16962	-526.01520	389.48856	178.10272	-644.44421	328.80637	207.92270	-594.22107	349.97772	170.30255	-732.79242	344.39194	164.03082	-443.75699	449.09613	147.27995	-450.27658	75.79710	143.85638	-806.19519	82.56978	142.64888	-799.47870	457.75778	145.01888	
316	6.300	-734.41803	241.42523	1832.99268	-702.69366	51.01863	1530.88574	-662.40521	433.13568	1537.95947	-586.17328	246.28452	1394.07129	-597.42316	128.47754	1062.49268	-586.27301	386.94778	1080.66296	-775.54785	246.26755	1066.04968	-621.48773	84.47421	898.48889	-568.41028	143.02188	853.36102	-664.99048	84.48167	753.56494	-674.08899	119.16917	607.47931	-653.52661	230.16264	570.01691	-705.99042	122.34146	541.72516	-621.14441	170.27904	554.62708	-741.99084	128.33990	473.11609	-688.98169	146.97012	213.63670	-618.63904	76.52666	164.88982	-573.36505	48.75824	157.90692	-492.47485	90.61382	160.21523	-531.67114	141.44653	166.12376	-631.66290	216.74606	222.39304	-590.61145	186.97226	171.25488	-712.67175	217.75273	169.83141	-605.45081	431.24817	889.52795	-558.91675	368.96921	846.68256	-649.19360	435.39993	757.05621	-673.50653	409.99503	631.19861	-637.65894	306.53149	585.38605	-678.16302	405.42346	566.52960	-624.84601	364.95511	547.66199	-728.88788	411.16559	513.54834	-682.81140	415.09818	214.68961	-585.86975	470.30371	163.52748	-546.78729	479.67642	158.86607	-488.31741	428.44012	169.16820	-526.00824	389.47498	178.12741	-644.43597	328.83987	207.93333	-594.28741	349.99707	170.28928	-732.80316	344.27881	163.99135	-443.72876	449.06836	147.29399	-450.30099	75.77361	143.85072	-806.19885	82.55444	142.64960	-799.52460	457.69049	145.10025	
317	6.320	-734.62708	241.23294	1833.06946	-703.35626	50.76337	1530.90723	-663.21716	432.95731	1537.92358	-586.87109	246.09621	1394.15039	-598.05243	128.46930	1062.37964	-586.96094	386.92151	1080.79517	-776.22302	246.08179	1065.89832	-622.01599	84.54112	898.40570	-568.94196	143.08446	853.32092	-665.34613	84.40936	753.48871	-674.28943	119.06400	607.46570	-653.71686	230.06470	569.88904	-706.08545	122.29507	541.59534	-621.39282	170.18161	554.49957	-742.09308	128.31200	472.99527	-688.97321	146.97087	213.62337	-618.62494	76.52865	164.93015	-573.35107	48.76817	157.91423	-492.49176	90.60976	160.20724	-531.65552	141.48215	166.08336	-631.60712	216.58179	222.80235	-590.61615	186.97118	171.24615	-712.76013	217.72789	169.76120	-606.00067	430.98846	889.45477	-559.48187	368.99332	846.84644	-649.62573	435.45294	757.05048	-673.82776	409.88626	631.14148	-637.84729	306.52429	585.34821	-678.40149	405.27002	566.43628	-625.04102	364.90189	547.78705	-729.11310	411.12503	513.50970	-682.89465	415.11456	214.66013	-585.86957	470.31540	163.52444	-546.77533	479.63959	158.87828	-488.34863	428.41312	169.16710	-526.01013	389.47961	178.14565	-644.43781	328.85629	207.93161	-594.32361	349.98120	170.29543	-732.77087	344.14752	163.93152	-443.69086	448.99127	147.30737	-450.31396	75.75973	143.84366	-806.19208	82.53582	142.65720	-799.50452	457.70834	145.08908	
